<svg xmlns="http://www.w3.org/2000/svg" viewBox="0 0 640 200" fill="none">
  
  <defs>
    <linearGradient id="wfGrad" x1="0" x2="1">
      <stop offset="0" stop-color="#27e070" stop-opacity="0"></stop>
      <stop offset="0.5" stop-color="#27e070" stop-opacity="1"></stop>
      <stop offset="1" stop-color="#27e070" stop-opacity="0"></stop>
    </linearGradient>
  </defs>
  
  <g stroke="#262d3c" stroke-width="1">
    <line x1="0" y1="50" x2="640" y2="50"></line>
    <line x1="0" y1="100" x2="640" y2="100"></line>
    <line x1="0" y1="150" x2="640" y2="150"></line>
  </g>
  
  <path d="M 0,100 L 20,100 L 30,80 L 40,120 L 50,60 L 60,140 L 70,90 L 85,90 L 95,70 L 105,130 L 115,40 L 125,160 L 135,95 L 150,95 L 160,75 L 170,125 L 180,55 L 190,145 L 200,100 L 220,100 L 230,70 L 240,130 L 250,50 L 260,150 L 270,95 L 290,95 L 300,80 L 310,120 L 320,40 L 330,160 L 340,100 L 360,100 L 370,75 L 380,125 L 390,55 L 400,145 L 410,100 L 430,100 L 440,85 L 450,115 L 460,65 L 470,135 L 480,95 L 500,95 L 510,75 L 520,125 L 530,60 L 540,140 L 550,100 L 570,100 L 580,90 L 590,110 L 600,85 L 610,115 L 620,100 L 640,100" stroke="url(#wfGrad)" stroke-width="1.5" fill="none"></path>
</svg>